<svg width="30" height="30" viewBox="0 0 30 30" fill="none" xmlns="http://www.w3.org/2000/svg">
<path d="M25.0106 15.5264H1.51863C0.680008 15.5264 0 14.8466 0 14.0078V1.51863C0 0.680008 0.680008 0 1.51863 0H25.0106C25.8492 0 26.5292 0.680008 26.5292 1.51863V14.0078C26.5292 14.8466 25.8492 15.5264 25.0106 15.5264Z" fill="#10BB67"/>
<path d="M25.0106 0H24.9433V12.2653C24.9433 13.1429 24.2319 13.8542 23.3542 13.8542H0V14.0078C0 14.8466 0.680008 15.5264 1.51863 15.5264H25.0106C25.8492 15.5264 26.5292 14.8466 26.5292 14.0078V1.51863C26.5292 0.680008 25.8492 0 25.0106 0Z" fill="#0D9653"/>
<path d="M2.70633 4.7818C2.44815 4.83398 2.26367 5.06035 2.26367 5.32356V9.96712C2.26367 10.2299 2.44884 10.4569 2.70633 10.5089C3.64612 10.6984 4.36641 11.4793 4.4749 12.4361C4.50648 12.7158 4.74246 12.9259 5.02399 12.9259H21.5053C21.7861 12.9259 22.0228 12.7153 22.0544 12.4361C22.1629 11.4793 22.8832 10.6984 23.823 10.5089C24.0811 10.4567 24.2656 10.2306 24.2656 9.96712V5.32356C24.2656 5.06081 24.0807 4.83398 23.823 4.7818C22.9491 4.60556 22.2608 3.91708 22.0844 3.04344C22.0324 2.78526 21.8061 2.60078 21.5428 2.60078H4.98645C4.72369 2.60078 4.49687 2.78572 4.44492 3.04344C4.26845 3.91708 3.5802 4.60556 2.70633 4.7818Z" fill="#32D736"/>
<path d="M22.5996 4.07524V7.64442C22.5996 8.22533 22.2533 8.74947 21.7197 8.97949C21.1469 9.22646 20.6998 9.70665 20.4957 10.2972C20.295 10.8769 19.7413 11.2598 19.1279 11.2598H3.9679C4.25079 11.5965 4.42543 12.0046 4.47441 12.4363C4.50623 12.716 4.7422 12.9259 5.0235 12.9259H21.5053C21.7861 12.9259 22.0228 12.7153 22.0544 12.4361C22.1629 11.4793 22.8831 10.6984 23.8229 10.5089C24.0811 10.4567 24.2656 10.2306 24.2656 9.96712V5.32356C24.2656 5.06081 24.0807 4.83398 23.8232 4.7818C23.3402 4.6843 22.914 4.43024 22.5996 4.07524Z" fill="#2AB52D"/>
<path d="M16.6912 7.76321C16.6912 9.65584 15.157 11.1898 13.2646 11.1898C11.372 11.1898 9.83801 9.65584 9.83801 7.76321C9.83801 5.87082 11.372 4.33662 13.2646 4.33662C15.157 4.33662 16.6912 5.87082 16.6912 7.76321Z" fill="#E1E3FA"/>
<path d="M30 13.9655C30 16.8908 27.6286 19.2622 24.7032 19.2622C21.7779 19.2622 19.4064 16.8908 19.4064 13.9655C19.4064 11.0401 21.7779 8.66867 24.7032 8.66867C27.6286 8.66867 30 11.0401 30 13.9655Z" fill="#17ACE8"/>
<path d="M28.3997 10.1722C28.7794 10.9259 28.9939 11.7769 28.9939 12.6782C28.9939 15.7587 26.4965 18.2561 23.416 18.2561C22.5147 18.2561 21.6635 18.0416 20.91 17.6619C21.8722 18.6488 23.216 19.2622 24.7032 19.2622C27.6286 19.2622 30 16.8908 30 13.9655C30 12.4782 29.3868 11.1344 28.3997 10.1722Z" fill="#1391C4"/>
<path d="M27.4427 13.5127H25.1559V11.226C25.1559 10.976 24.9532 10.7732 24.7032 10.7732C24.4533 10.7732 24.2505 10.976 24.2505 11.226V13.5127H21.964C21.7138 13.5127 21.5112 13.7153 21.5112 13.9655C21.5112 14.2154 21.7138 14.4182 21.964 14.4182H24.2505V16.7047C24.2505 16.9549 24.4533 17.1574 24.7032 17.1574C24.9534 17.1574 25.1559 16.9549 25.1559 16.7047V14.4182H27.4427C27.6926 14.4182 27.8952 14.2154 27.8952 13.9655C27.8952 13.7155 27.6926 13.5127 27.4427 13.5127Z" fill="#E1E3FA"/>
</svg>
