<svg xmlns="http://www.w3.org/2000/svg" version="1.1" xmlns:xlink="http://www.w3.org/1999/xlink" xmlns:svgjs="http://svgjs.com/svgjs" width="512" height="512" x="0" y="0" viewBox="0 0 512 511" style="enable-background:new 0 0 512 512" xml:space="preserve" class=""><g><path d="m458.511719 229.757812c0 126.613282-102.640625 229.253907-229.253907 229.253907-126.617187 0-229.257812-102.640625-229.257812-229.253907 0-126.617187 102.640625-229.257812 229.257812-229.257812 126.613282 0 229.253907 102.640625 229.253907 229.257812zm0 0" fill="#feb836" data-original="#feb836" class=""></path><path d="m229.257812.5c-7.035156 0-14.019531.320312-20.894531.941406 116.832031 10.542969 208.414063 108.738282 208.414063 228.316406 0 119.578126-91.59375 217.769532-208.425782 228.316407 6.875.617187 13.871094.9375 20.90625.9375 126.613282 0 229.253907-102.640625 229.253907-229.257813 0-126.613281-102.640625-229.253906-229.253907-229.253906zm0 0" fill="#d1972c" data-original="#d1972c" class=""></path><path d="m390.648438 229.757812c0 89.132813-72.257813 161.390626-161.390626 161.390626-89.132812 0-161.390624-72.257813-161.390624-161.390626 0-89.132812 72.257812-161.390624 161.390624-161.390624 89.132813 0 161.390626 72.257812 161.390626 161.390624zm0 0" fill="#ffdc45" data-original="#ffdc45" class=""></path><path d="m229.257812 68.367188c-7.074218 0-14.0625.457031-20.894531 1.339843 79.277344 10.234375 140.550781 77.988281 140.550781 160.050781s-61.453124 149.792969-140.730468 160.027344c6.832031.882813 14 1.363282 21.074218 1.363282 89.132813 0 161.390626-72.257813 161.390626-161.390626 0-89.132812-72.257813-161.390624-161.390626-161.390624zm0 0" fill="#d6b93a" data-original="#d6b93a" class=""></path><path d="m512 378.679688c0 49.925781-40.472656 90.398437-90.398438 90.398437-49.925781 0-90.398437-40.472656-90.398437-90.398437 0-49.925782 40.472656-90.398438 90.398437-90.398438 49.925782 0 90.398438 40.472656 90.398438 90.398438zm0 0" fill="#17ace8" data-original="#17ace8" class=""></path><path d="m474.484375 305.355469c10.746094 14.871093 17.082031 33.144531 17.082031 52.894531 0 49.925781-40.472656 90.398438-90.394531 90.398438-19.75 0-38.027344-6.339844-52.894531-17.085938 16.417968 22.722656 43.148437 37.515625 73.324218 37.515625 49.925782 0 90.398438-40.472656 90.398438-90.398437 0-30.175782-14.792969-56.902344-37.515625-73.324219zm0 0" fill="#1391c4" data-original="#1391c4"></path><path d="m468.351562 370.957031h-39.023437v-39.027343c0-4.265626-3.460937-7.726563-7.726563-7.726563-4.269531 0-7.726562 3.460937-7.726562 7.726563v39.027343h-39.027344c-4.265625 0-7.722656 3.457031-7.722656 7.722657 0 4.269531 3.457031 7.726562 7.722656 7.726562h39.027344v39.027344c0 4.265625 3.457031 7.726562 7.726562 7.726562 4.265626 0 7.726563-3.460937 7.726563-7.726562v-39.027344h39.023437c4.269532 0 7.726563-3.457031 7.726563-7.726562.003906-4.265626-3.457031-7.722657-7.726563-7.722657zm0 0" fill="#e1e3fa" data-original="#e1e3fa"></path></g></svg>