<svg xmlns="http://www.w3.org/2000/svg" version="1.1" xmlns:xlink="http://www.w3.org/1999/xlink" xmlns:svgjs="http://svgjs.com/svgjs" width="512" height="512" x="0" y="0" viewBox="0 0 512 512" style="enable-background:new 0 0 512 512" xml:space="preserve" class=""><g><path d="m426.847656 264.984375h-400.929687c-14.3125 0-25.917969-11.601563-25.917969-25.917969v-213.148437c0-14.3125 11.605469-25.917969 25.917969-25.917969h400.929687c14.3125 0 25.917969 11.605469 25.917969 25.917969v213.148437c0 14.316406-11.605469 25.917969-25.917969 25.917969zm0 0" fill="#10bb67" data-original="#10bb67" class=""></path><path d="m426.847656 0h-1.148437v209.328125c0 14.976563-12.140625 27.117187-27.121094 27.117187h-398.578125v2.621094c0 14.316406 11.605469 25.917969 25.917969 25.917969h400.929687c14.3125 0 25.917969-11.601563 25.917969-25.917969v-213.148437c0-14.3125-11.605469-25.917969-25.917969-25.917969zm0 0" fill="#0d9653" data-original="#0d9653" class=""></path><path d="m46.1875 81.609375c-4.40625.890625-7.554688 4.753906-7.554688 9.246094v79.25c0 4.484375 3.160157 8.359375 7.554688 9.246093 16.039062 3.234376 28.332031 16.5625 30.183594 32.890626.539062 4.773437 4.566406 8.359374 9.371094 8.359374h281.28125c4.792968 0 8.832031-3.59375 9.371093-8.359374 1.851563-16.328126 14.144531-29.65625 30.183594-32.890626 4.40625-.890624 7.554687-4.75 7.554687-9.246093v-79.25c0-4.484375-3.15625-8.355469-7.554687-9.246094-14.914063-3.007813-26.660156-14.757813-29.671875-29.667969-.886719-4.40625-4.75-7.554687-9.242188-7.554687h-282.5625c-4.484374 0-8.355468 3.15625-9.242187 7.554687-3.011719 14.910156-14.757813 26.660156-29.671875 29.667969zm0 0" fill="#32d736" data-original="#32d736" class=""></path><path d="m385.699219 69.550781v60.914063c0 9.914062-5.910157 18.859375-15.015625 22.785156-9.777344 4.214844-17.40625 12.410156-20.890625 22.488281-3.425781 9.894531-12.875 16.429688-23.34375 16.429688h-258.730469c4.828125 5.746093 7.808594 12.710937 8.644531 20.078125.542969 4.773437 4.570313 8.355468 9.371094 8.355468h281.289063c4.792968 0 8.832031-3.59375 9.371093-8.359374 1.851563-16.328126 14.144531-29.65625 30.183594-32.890626 4.40625-.890624 7.554687-4.75 7.554687-9.246093v-79.25c0-4.484375-3.15625-8.355469-7.550781-9.246094-8.242187-1.664063-15.515625-6-20.882812-12.058594zm0 0" fill="#2ab52d" data-original="#2ab52d" class=""></path><path d="m284.863281 132.492188c0 32.300781-26.183593 58.480468-58.480469 58.480468-32.300781 0-58.480468-26.179687-58.480468-58.480468 0-32.296876 26.179687-58.480469 58.480468-58.480469 32.296876 0 58.480469 26.183593 58.480469 58.480469zm0 0" fill="#e1e3fa" data-original="#e1e3fa" class=""></path><path d="m512 238.34375c0 49.925781-40.472656 90.398438-90.398438 90.398438-49.925781 0-90.398437-40.472657-90.398437-90.398438s40.472656-90.398438 90.398437-90.398438c49.925782 0 90.398438 40.472657 90.398438 90.398438zm0 0" fill="#17ace8" data-original="#17ace8" class=""></path><path d="m484.6875 173.605469c6.480469 12.863281 10.140625 27.386719 10.140625 42.769531 0 52.574219-42.621094 95.195312-95.195313 95.195312-15.382812 0-29.910156-3.660156-42.769531-10.140624 16.421875 16.84375 39.355469 27.3125 64.738281 27.3125 49.925782 0 90.398438-40.472657 90.398438-90.398438 0-25.382812-10.464844-48.316406-27.3125-64.738281zm0 0" fill="#1391c4" data-original="#1391c4" class=""></path><path d="m468.355469 230.617188h-39.027344v-39.027344c0-4.265625-3.460937-7.726563-7.726563-7.726563-4.265624 0-7.726562 3.460938-7.726562 7.726563v39.027344h-39.023438c-4.269531 0-7.726562 3.457031-7.726562 7.726562 0 4.265625 3.457031 7.726562 7.726562 7.726562h39.023438v39.023438c0 4.269531 3.460938 7.726562 7.726562 7.726562 4.269532 0 7.726563-3.457031 7.726563-7.726562v-39.023438h39.027344c4.265625 0 7.722656-3.460937 7.722656-7.726562s-3.457031-7.726562-7.722656-7.726562zm0 0" fill="#e1e3fa" data-original="#e1e3fa" class=""></path></g></svg>