<svg width="30" height="30" viewBox="0 0 30 30" fill="none" xmlns="http://www.w3.org/2000/svg">
<g clip-path="url(#clip0_7_276)">
<path d="M26.8659 13.4917C26.8659 20.9104 20.8518 26.9245 13.4331 26.9245C6.0141 26.9245 0 20.9104 0 13.4917C0 6.07269 6.0141 0.0585938 13.4331 0.0585938C20.8518 0.0585938 26.8659 6.07269 26.8659 13.4917Z" fill="#FEB836"/>
<path d="M13.4331 0.0585938C13.0209 0.0585938 12.6116 0.077362 12.2088 0.113754C19.0544 0.731506 24.4206 6.48514 24.4206 13.4917C24.4206 20.4982 19.0538 26.2516 12.2081 26.8696C12.611 26.9057 13.0209 26.9245 13.4331 26.9245C20.8519 26.9245 26.866 20.9104 26.866 13.4914C26.866 6.07269 20.8519 0.0585938 13.4331 0.0585938Z" fill="#D1972C"/>
<path d="M22.8895 13.4917C22.8895 18.7143 18.6557 22.9482 13.433 22.9482C8.21042 22.9482 3.97656 18.7143 3.97656 13.4917C3.97656 8.26904 8.21042 4.03519 13.433 4.03519C18.6557 4.03519 22.8895 8.26904 22.8895 13.4917Z" fill="#FFDC45"/>
<path d="M13.4331 4.03519C13.0186 4.03519 12.6091 4.06197 12.2088 4.11369C16.8539 4.71336 20.4442 8.68332 20.4442 13.4917C20.4442 18.3 16.8434 22.2686 12.1982 22.8683C12.5986 22.92 13.0186 22.9482 13.4331 22.9482C18.6557 22.9482 22.8895 18.7143 22.8895 13.4917C22.8895 8.26904 18.6557 4.03519 13.4331 4.03519Z" fill="#D6B93A"/>
<path d="M30.0001 22.2176C30.0001 25.1429 27.6286 27.5143 24.7033 27.5143C21.7779 27.5143 19.4065 25.1429 19.4065 22.2176C19.4065 19.2922 21.7779 16.9208 24.7033 16.9208C27.6286 16.9208 30.0001 19.2922 30.0001 22.2176Z" fill="#17ACE8"/>
<path d="M27.8018 17.9212C28.4315 18.7926 28.8027 19.8633 28.8027 21.0205C28.8027 23.9458 26.4313 26.3173 23.5061 26.3173C22.3489 26.3173 21.278 25.9458 20.4069 25.3162C21.3689 26.6476 22.9351 27.5143 24.7032 27.5143C27.6285 27.5143 30 25.1429 30 22.2176C30 20.4494 29.1332 18.8834 27.8018 17.9212Z" fill="#1391C4"/>
<path d="M27.4425 21.7651H25.1559V19.4783C25.1559 19.2284 24.9532 19.0256 24.7032 19.0256C24.453 19.0256 24.2505 19.2284 24.2505 19.4783V21.7651H21.9637C21.7138 21.7651 21.5112 21.9676 21.5112 22.2176C21.5112 22.4677 21.7138 22.6703 21.9637 22.6703H24.2505V24.957C24.2505 25.207 24.453 25.4098 24.7032 25.4098C24.9532 25.4098 25.1559 25.207 25.1559 24.957V22.6703H27.4425C27.6926 22.6703 27.8952 22.4677 27.8952 22.2176C27.8954 21.9676 27.6926 21.7651 27.4425 21.7651Z" fill="#E1E3FA"/>
</g>
<defs>
<clipPath id="clip0_7_276">
<rect width="30" height="30" fill="white"/>
</clipPath>
</defs>
</svg>
