<svg width="40" height="40" viewBox="0 0 40 40" fill="none" xmlns="http://www.w3.org/2000/svg">
<g clip-path="url(#clip0_8_591)">
<path d="M31.7505 40H8.24954C6.91602 40 5.83508 38.919 5.83508 37.5855V2.41445C5.835 1.08102 6.91602 0 8.24954 0H31.7506C33.0841 0 34.165 1.08102 34.165 2.41445V37.5855C34.165 38.919 33.084 40 31.7505 40Z" fill="#F3EAE6"/>
<path d="M31.7505 0H31.4267C31.6322 0.355234 31.7505 0.767266 31.7505 1.20727V15.4279C31.7505 28.332 21.2897 38.7928 8.38559 38.7928H6.15887C6.57637 39.5142 7.35598 40 8.24958 40H31.7506C33.0841 40 34.165 38.919 34.165 37.5855V2.41445C34.165 1.08102 33.084 0 31.7505 0V0Z" fill="#E1D3CE"/>
<path d="M31.7505 40L28.3591 38.7927L24.5144 40H8.24954C6.91602 40 5.83508 38.919 5.83508 37.5855V34.3948H34.1651V37.5855C34.165 38.919 33.084 40 31.7505 40Z" fill="#ACA6D6"/>
<path d="M34.1649 2.41484V37.5852C34.1649 38.9188 33.0844 40 31.7508 40H8.24925C7.35629 40 6.5766 39.5141 6.15863 38.793H8.38597C13.4797 38.793 18.1938 37.1625 22.0328 34.3945C27.9188 30.1523 31.7508 23.2375 31.7508 15.4281V1.20703C31.7508 0.767187 31.6321 0.355469 31.4266 0H31.7508C33.0844 0 34.1649 1.08125 34.1649 2.41484Z" fill="#E1D3CE"/>
<path d="M34.1649 34.3945V37.5852C34.1649 38.9187 33.0844 40 31.7508 40L28.3594 38.793L24.5141 40H8.24925C7.35629 40 6.5766 39.5141 6.15863 38.793H8.38597C13.4797 38.793 18.1938 37.1625 22.0328 34.3945H34.1649Z" fill="#978ECB"/>
<path d="M34.165 7.24344H5.83502V2.41445C5.83502 1.08102 6.91604 0 8.24955 0H31.7506C33.0841 0 34.165 1.08102 34.165 2.41445V7.24344Z" fill="#ACA6D6"/>
<path d="M31.7505 0H31.4266C31.6322 0.355234 31.7505 0.767266 31.7505 1.20727V7.24352H34.1649V2.41445C34.165 1.08102 33.084 0 31.7505 0Z" fill="#978ECB"/>
<path d="M8.24955 0C6.91604 0 5.83502 1.08102 5.83502 2.41445V7.24344H15.8838V0L8.24955 0Z" fill="#978ECB"/>
<path d="M31.7505 40H24.5144V37.3727C24.5144 37.0615 24.7667 36.8093 25.0778 36.8093H31.1871C31.4982 36.8093 31.7504 37.0616 31.7504 37.3727V40H31.7505Z" fill="#FAF7F7"/>
<path d="M23.1272 4.3461V2.89735C23.1272 2.63063 23.3434 2.41446 23.6101 2.41446H31.2676C31.5343 2.41446 31.7505 2.63063 31.7505 2.89735V4.3461C31.7505 4.61282 31.5343 4.82899 31.2676 4.82899H23.6101C23.3434 4.82899 23.1272 4.61274 23.1272 4.3461Z" fill="#FAF7F7"/>
<path d="M20.3566 4.47693C20.828 4.00554 20.828 3.24126 20.3566 2.76986C19.8852 2.29847 19.1209 2.29847 18.6495 2.76986C18.1781 3.24126 18.1781 4.00554 18.6495 4.47693C19.1209 4.94833 19.8852 4.94833 20.3566 4.47693Z" fill="#FAF7F7"/>
<path d="M13.4692 3.01813H8.24947C7.91611 3.01813 7.64587 2.7479 7.64587 2.41454C7.64587 2.08118 7.91611 1.81094 8.24947 1.81094H13.4692C13.8026 1.81094 14.0728 2.08118 14.0728 2.41454C14.0728 2.7479 13.8027 3.01813 13.4692 3.01813Z" fill="#FAF7F7"/>
<path d="M13.4692 5.43259H8.24947C7.91611 5.43259 7.64587 5.16236 7.64587 4.829C7.64587 4.49564 7.91611 4.2254 8.24947 4.2254H13.4692C13.8026 4.2254 14.0728 4.49564 14.0728 4.829C14.0728 5.16236 13.8027 5.43259 13.4692 5.43259Z" fill="#FAF7F7"/>
<path d="M20.0001 29.585C24.8413 29.585 28.7659 25.6604 28.7659 20.8191C28.7659 15.9779 24.8413 12.0533 20.0001 12.0533C15.1588 12.0533 11.2342 15.9779 11.2342 20.8191C11.2342 25.6604 15.1588 29.585 20.0001 29.585Z" fill="#B3DAFE"/>
<path d="M20 27.1706C23.5078 27.1706 26.3514 24.3269 26.3514 20.8191C26.3514 17.3114 23.5078 14.4677 20 14.4677C16.4922 14.4677 13.6486 17.3114 13.6486 20.8191C13.6486 24.3269 16.4922 27.1706 20 27.1706Z" fill="#8AC9FE"/>
<path d="M18.2677 21.3443C18.1132 21.3443 17.9587 21.2854 17.8409 21.1675C17.6051 20.9318 17.6051 20.5496 17.8409 20.3138L20.0984 18.0562C20.3341 17.8205 20.7163 17.8205 20.952 18.0562C21.1878 18.292 21.1878 18.6742 20.952 18.9099L18.6945 21.1675C18.5766 21.2853 18.4221 21.3443 18.2677 21.3443Z" fill="#D8ECFE"/>
<path d="M19.4749 23.7588C19.3205 23.7588 19.1659 23.6998 19.0481 23.582C18.8123 23.3463 18.8123 22.9641 19.0481 22.7283L21.3056 20.4707C21.5413 20.235 21.9235 20.235 22.1592 20.4707C22.395 20.7064 22.395 21.0887 22.1592 21.3244L19.9017 23.582C19.7839 23.6998 19.6294 23.7588 19.4749 23.7588Z" fill="#D8ECFE"/>
</g>
<defs>
<clipPath id="clip0_8_591">
<rect width="40" height="40" fill="white"/>
</clipPath>
</defs>
</svg>
